<?xml version="1.0" encoding="utf-8"?>
<svg xmlns="http://www.w3.org/2000/svg" xmlns:svg="http://www.w3.org/2000/svg" version="1.1" viewBox="0 0 1400 1050">
	<title>The titlepage for the Standard Ebooks edition of The Moon and Sixpence, by W. Somerset Maugham</title>
	<g>
		<path d="m 28.929083,61.789107 57.702852,0 0,7.766813 -24.214182,0 0,60.44408 -9.274489,0 0,-60.44408 -24.214181,0 0,-7.766813 z"/>
		<path d="m 100.58661,61.789107 9.22881,0 0,27.960527 33.53435,0 0,-27.960527 9.2288,0 0,68.210893 -9.2288,0 0,-32.483553 -33.53435,0 0,32.483553 -9.22881,0 0,-68.210893 z"/>
		<path d="m 175.94479,61.789107 43.12866,0 0,7.766813 -33.89986,0 0,20.193714 32.48356,0 0,7.766813 -32.48356,0 0,24.716743 34.72223,0 0,7.76681 -43.95103,0 0,-68.210893 z"/>
		<path d="m 274.94334,61.789107 13.75183,0 17.4068,46.418133 17.49817,-46.418133 13.75183,0 0,68.210893 -9.00037,0 0,-59.895834 -17.58954,46.783624 -9.27449,0 -17.58955,-46.783624 0,59.895834 -8.95468,0 0,-68.210893 z"/>
		<path d="m 388.4046,68.048245 q -10.05117,0 -15.9905,7.49269 -5.89364,7.49269 -5.89364,20.422149 0,12.883776 5.89364,20.376466 5.93933,7.49269 15.9905,7.49269 10.05117,0 15.89913,-7.49269 5.89364,-7.49269 5.89364,-20.376466 0,-12.929459 -5.89364,-20.422149 -5.84796,-7.49269 -15.89913,-7.49269 z m 0,-7.492691 q 14.34576,0 22.93494,9.639986 8.58919,9.594298 8.58919,25.767544 0,16.127556 -8.58919,25.767546 -8.58918,9.5943 -22.93494,9.5943 -14.39145,0 -23.02631,-9.5943 -8.58919,-9.5943 -8.58919,-25.767546 0,-16.173246 8.58919,-25.767544 8.63486,-9.639986 23.02631,-9.639986 z"/>
		<path d="m 467.05225,68.048245 q -10.05117,0 -15.9905,7.49269 -5.89364,7.49269 -5.89364,20.422149 0,12.883776 5.89364,20.376466 5.93933,7.49269 15.9905,7.49269 10.05117,0 15.89912,-7.49269 5.89364,-7.49269 5.89364,-20.376466 0,-12.929459 -5.89364,-20.422149 -5.84795,-7.49269 -15.89912,-7.49269 z m 0,-7.492691 q 14.34576,0 22.93494,9.639986 8.58918,9.594298 8.58918,25.767544 0,16.127556 -8.58918,25.767546 -8.58918,9.5943 -22.93494,9.5943 -14.39145,0 -23.02632,-9.5943 -8.58918,-9.5943 -8.58918,-25.767546 0,-16.173246 8.58918,-25.767544 8.63487,-9.639986 23.02632,-9.639986 z"/>
		<path d="m 518.01352,61.789107 12.4269,0 30.24488,57.063233 0,-57.063233 8.95468,0 0,68.210893 -12.4269,0 -30.24488,-57.063232 0,57.063232 -8.95468,0 0,-68.210893 z"/>
		<path d="m 650.5921,70.880847 -12.51828,33.945543 25.08224,0 -12.56396,-33.945543 z m -5.20834,-9.09174 10.46236,0 L 681.8421,130 l -9.5943,0 -6.21345,-17.49817 -30.74744,0 -6.21345,17.49817 -9.73136,0 26.04166,-68.210893 z"/>
		<path d="m 696.75619,61.789107 12.4269,0 30.24489,57.063233 0,-57.063233 8.95468,0 0,68.210893 -12.42691,0 -30.24488,-57.063232 0,57.063232 -8.95468,0 0,-68.210893 z"/>
		<path d="m 780.97767,69.373171 0,53.042769 11.14766,0 q 14.11733,0 20.65059,-6.3962 6.57894,-6.3962 6.57894,-20.193717 0,-13.706141 -6.57894,-20.056653 -6.53326,-6.396199 -20.65059,-6.396199 l -11.14766,0 z m -9.2288,-7.584064 18.96016,0 q 19.82822,0 29.1027,8.269371 9.27449,8.223685 9.27449,25.767545 0,17.635237 -9.32017,25.904607 Q 810.44587,130 790.70903,130 l -18.96016,0 0,-68.210893 z"/>
		<path d="m 924.42981,64.027777 0,9.000365 q -5.25402,-2.512792 -9.91411,-3.746345 -4.66009,-1.233552 -9.00036,-1.233552 -7.53838,0 -11.65022,2.923976 -4.06616,2.923977 -4.06616,8.315059 0,4.523026 2.69554,6.85307 2.74123,2.284357 10.32529,3.700658 l 5.57383,1.142178 q 10.3253,1.964547 15.21382,6.944445 4.93421,4.934209 4.93421,13.249269 0,9.91411 -6.67032,15.03107 -6.62464,5.11696 -19.46272,5.11696 -4.84284,0 -10.32529,-1.09649 -5.43677,-1.0965 -11.28473,-3.24379 l 0,-9.50293 q 5.61952,3.15242 11.0106,4.75147 5.39109,1.59905 10.59942,1.59905 7.90387,0 12.19847,-3.10673 4.29459,-3.10672 4.29459,-8.8633 0,-5.02559 -3.10673,-7.85819 -3.06104,-2.8326 -10.09686,-4.248904 l -5.61951,-1.096491 q -10.3253,-2.055921 -14.9397,-6.441886 -4.6144,-4.385965 -4.6144,-12.198465 0,-9.046053 6.35051,-14.254386 6.3962,-5.208334 17.58955,-5.208334 4.79715,0 9.77705,0.868056 4.9799,0.868055 10.18823,2.604167 z"/>
		<path d="m 947.93313,61.789107 9.2288,0 0,68.210893 -9.2288,0 0,-68.210893 z"/>
		<path d="m 977.23869,61.789107 9.91411,0 16.9499,25.35636 17.0413,-25.35636 9.9141,0 -21.9298,32.757676 L 1032.5201,130 1022.606,130 1003.4174,100.98867 984.09176,130 l -9.95979,0 24.35124,-36.412647 -21.24452,-31.798246 z"/>
		<path d="m 1058.9017,69.373171 0,25.630483 11.6045,0 q 6.4419,0 9.9598,-3.335161 3.5179,-3.33516 3.5179,-9.502924 0,-6.122076 -3.5179,-9.457237 -3.5179,-3.335161 -9.9598,-3.335161 l -11.6045,0 z m -9.2288,-7.584064 20.8333,0 q 11.4675,0 17.3154,5.208333 5.8937,5.162647 5.8937,15.168129 0,10.096857 -5.8937,15.259504 -5.8479,5.162647 -17.3154,5.162647 l -11.6045,0 0,27.41228 -9.2288,0 0,-68.210893 z"/>
		<path d="m 1111.1422,61.789107 43.1286,0 0,7.766813 -33.8998,0 0,20.193714 32.4835,0 0,7.766813 -32.4835,0 0,24.716743 34.7222,0 0,7.76681 -43.951,0 0,-68.210893 z"/>
		<path d="m 1175.3528,61.789107 12.4269,0 30.2448,57.063233 0,-57.063233 8.9547,0 0,68.210893 -12.4269,0 -30.2449,-57.063232 0,57.063232 -8.9546,0 0,-68.210893 z"/>
		<path d="m 1301.4236,67.043128 0,9.731359 q -4.66,-4.340277 -9.9598,-6.487573 -5.254,-2.147295 -11.1933,-2.147295 -11.6959,0 -17.9094,7.17288 -6.2134,7.127193 -6.2134,20.650585 0,13.477706 6.2134,20.650586 6.2135,7.12719 17.9094,7.12719 5.9393,0 11.1933,-2.14729 5.2998,-2.1473 9.9598,-6.48758 l 0,9.63999 q -4.8428,3.28947 -10.2796,4.93421 -5.391,1.64474 -11.4217,1.64474 -15.488,0 -24.397,-9.45724 -8.909,-9.50292 -8.909,-25.904606 0,-16.447369 8.909,-25.904606 8.909,-9.502924 24.397,-9.502924 6.122,0 11.5131,1.644737 5.4368,1.59905 10.1882,4.842837 z"/>
		<path d="m 1320.7694,61.789107 43.1286,0 0,7.766813 -33.8998,0 0,20.193714 32.4835,0 0,7.766813 -32.4835,0 0,24.716743 34.7222,0 0,7.76681 -43.951,0 0,-68.210893 z"/>
	</g>
	<g>
		<path d="m 251.21711,438.84183 6.99013,0 10.75932,43.24287 10.72506,-43.24287 7.77823,0 10.75932,43.24287 10.72505,-43.24287 7.0244,0 L 303.12912,490 294.42572,490 283.63213,445.59211 272.73575,490 l -8.7034,0 -12.81524,-51.15817 z"/>
		<path d="m 322.65763,481.2966 7.22998,0 0,8.7034 -7.22998,0 0,-8.7034 z"/>
		<path d="m 407.39035,440.52083 0,6.75028 q -3.94051,-1.8846 -7.43558,-2.80976 -3.49506,-0.92517 -6.75027,-0.92517 -5.65379,0 -8.73767,2.19299 -3.04961,2.19298 -3.04961,6.23629 0,3.39227 2.02165,5.1398 2.05592,1.71327 7.74397,2.7755 l 4.18037,0.85663 q 7.74397,1.47341 11.41037,5.20833 3.70065,3.70066 3.70065,9.93696 0,7.43558 -5.00274,11.2733 -4.96847,3.83772 -14.59704,3.83772 -3.63212,0 -7.74397,-0.82237 -4.07757,-0.82237 -8.46354,-2.43284 l 0,-7.1272 q 4.21464,2.36431 8.25795,3.5636 4.04331,1.19929 7.94956,1.19929 5.92791,0 9.14885,-2.33005 3.22095,-2.33004 3.22095,-6.64747 0,-3.76919 -2.33005,-5.89364 -2.29578,-2.12446 -7.57264,-3.18668 l -4.21464,-0.82237 q -7.74397,-1.54194 -11.20477,-4.83141 -3.4608,-3.28948 -3.4608,-9.14885 0,-6.78454 4.76288,-10.69079 4.79715,-3.90625 13.19216,-3.90625 3.59787,0 7.33279,0.65104 3.73492,0.65104 7.64117,1.95312 z"/>
		<path d="m 440.86486,456.04304 q -5.07127,0 -8.01809,3.97478 -2.94682,3.94051 -2.94682,10.82785 0,6.88733 2.91256,10.86212 2.94682,3.94051 8.05235,3.94051 5.03701,0 7.98383,-3.97478 2.94682,-3.97478 2.94682,-10.82785 0,-6.81881 -2.94682,-10.79359 -2.94682,-4.00904 -7.98383,-4.00904 z m 0,-5.3454 q 8.22369,0 12.91804,5.3454 4.69435,5.34539 4.69435,14.80263 0,9.42297 -4.69435,14.80263 -4.69435,5.3454 -12.91804,5.3454 -8.25795,0 -12.9523,-5.3454 -4.66009,-5.37966 -4.66009,-14.80263 0,-9.45724 4.66009,-14.80263 4.69435,-5.3454 12.9523,-5.3454 z"/>
		<path d="m 503.77331,458.98986 q 2.36431,-4.24891 5.65378,-6.27056 3.28948,-2.02166 7.74397,-2.02166 5.99644,0 9.25165,4.21464 3.2552,4.18037 3.2552,11.92434 l 0,23.16338 -6.33908,0 0,-22.95778 q 0,-5.51673 -1.95313,-8.18942 -1.95312,-2.6727 -5.96217,-2.6727 -4.89995,0 -7.74397,3.25521 -2.84402,3.25521 -2.84402,8.87472 l 0,21.68997 -6.33909,0 0,-22.95778 q 0,-5.55099 -1.95313,-8.18942 -1.95312,-2.6727 -6.0307,-2.6727 -4.83142,0 -7.67544,3.28947 -2.84402,3.25521 -2.84402,8.84046 l 0,21.68997 -6.33909,0 0,-38.37719 6.33909,0 0,5.96217 q 2.15871,-3.52933 5.17406,-5.20833 3.01536,-1.67901 7.16146,-1.67901 4.18038,0 7.09293,2.12445 2.94682,2.12446 4.3517,6.16777 z"/>
		<path d="m 580.11378,469.2352 0,3.08388 -28.98849,0 q 0.41118,6.51042 3.90625,9.93695 3.52933,3.39227 9.79989,3.39227 3.63213,0 7.0244,-0.8909 3.42653,-0.8909 6.78454,-2.6727 l 0,5.96218 q -3.39227,1.43914 -6.95587,2.19298 -3.5636,0.75384 -7.22999,0.75384 -9.18311,0 -14.56277,-5.3454 -5.3454,-5.34539 -5.3454,-14.45998 0,-9.42297 5.07127,-14.93969 5.10554,-5.55099 13.74041,-5.55099 7.74397,0 12.23273,5.00274 4.52303,4.96848 4.52303,13.53482 z m -6.30483,-1.85033 q -0.0685,-5.17407 -2.91255,-8.25795 -2.80976,-3.08388 -7.46985,-3.08388 -5.27686,0 -8.46354,2.98108 -3.15241,2.98109 -3.63213,8.39501 l 22.47807,-0.0343 z"/>
		<path d="m 617.7001,457.51645 q -1.06223,-0.61678 -2.33004,-0.8909 -1.23356,-0.30839 -2.74123,-0.30839 -5.3454,0 -8.22369,3.49507 -2.84402,3.4608 -2.84402,9.97121 l 0,20.21656 -6.33909,0 0,-38.37719 6.33909,0 0,5.96217 q 1.98739,-3.49507 5.17407,-5.17407 3.18667,-1.71327 7.74397,-1.71327 0.65104,0 1.43914,0.1028 0.7881,0.0685 1.74753,0.23986 l 0.0343,6.47615 z"/>
		<path d="m 653.84733,452.75356 0,5.96217 q -2.6727,-1.37061 -5.55099,-2.05592 -2.87829,-0.6853 -5.96217,-0.6853 -4.69435,0 -7.05866,1.43914 -2.33004,1.43915 -2.33004,4.31744 0,2.19298 1.679,3.4608 1.679,1.23355 6.75027,2.36431 l 2.15872,0.47971 q 6.71601,1.43915 9.52577,4.07758 2.84402,2.60416 2.84402,7.29852 0,5.34539 -4.2489,8.46354 -4.21464,3.11815 -11.61596,3.11815 -3.08388,0 -6.44188,-0.61678 -3.32374,-0.58251 -7.0244,-1.7818 l 0,-6.51042 q 3.49507,1.81607 6.88734,2.74123 3.39227,0.8909 6.71601,0.8909 4.45449,0 6.85307,-1.50767 2.39857,-1.54195 2.39857,-4.31744 0,-2.5699 -1.74753,-3.94051 -1.71327,-1.37062 -7.57265,-2.63844 l -2.19298,-0.51398 q -5.85937,-1.23355 -8.46354,-3.76918 -2.60417,-2.56991 -2.60417,-7.0244 0,-5.41393 3.83772,-8.36075 3.83772,-2.94682 10.89638,-2.94682 3.49507,0 6.57895,0.51398 3.08388,0.51398 5.68805,1.54194 z"/>
		<path d="m 703.80344,469.2352 0,3.08388 -28.98848,0 q 0.41118,6.51042 3.90625,9.93695 3.52933,3.39227 9.79989,3.39227 3.63212,0 7.02439,-0.8909 3.42654,-0.8909 6.78454,-2.6727 l 0,5.96218 q -3.39227,1.43914 -6.95586,2.19298 -3.5636,0.75384 -7.22999,0.75384 -9.18312,0 -14.56278,-5.3454 -5.34539,-5.34539 -5.34539,-14.45998 0,-9.42297 5.07127,-14.93969 5.10554,-5.55099 13.74041,-5.55099 7.74397,0 12.23273,5.00274 4.52302,4.96848 4.52302,13.53482 z m -6.30482,-1.85033 q -0.0685,-5.17407 -2.91256,-8.25795 -2.80976,-3.08388 -7.46984,-3.08388 -5.27687,0 -8.46354,2.98108 -3.15242,2.98109 -3.63213,8.39501 l 22.47807,-0.0343 z"/>
		<path d="m 725.38788,440.72643 0,10.89638 12.98657,0 0,4.89994 -12.98657,0 0,20.83334 q 0,4.69435 1.26782,6.0307 1.30208,1.33635 5.24259,1.33635 l 6.47616,0 0,5.27686 -6.47616,0 q -7.29852,0 -10.07401,-2.70696 -2.77549,-2.74123 -2.77549,-9.93695 l 0,-20.83334 -4.62582,0 0,-4.89994 4.62582,0 0,-10.89638 6.33909,0 z"/>
		<path d="m 779.31609,438.84183 10.31387,0 13.0551,34.8136 13.12363,-34.8136 10.31387,0 0,51.15817 -6.75028,0 0,-44.92187 -13.19216,35.08771 -6.95586,0 -13.19216,-35.08771 0,44.92187 -6.71601,0 0,-51.15817 z"/>
		<path d="m 862.06414,470.70861 q -7.64117,0 -10.58799,1.74753 -2.94682,1.74753 -2.94682,5.96217 0,3.35801 2.19298,5.3454 2.22725,1.95312 6.0307,1.95312 5.2426,0 8.39502,-3.70066 3.18667,-3.73492 3.18667,-9.90268 l 0,-1.40488 -6.27056,0 z m 12.57539,-2.60417 0,21.89556 -6.30483,0 0,-5.82511 q -2.15871,3.49507 -5.37966,5.17407 -3.22094,1.64474 -7.88103,1.64474 -5.89364,0 -9.3887,-3.28948 -3.4608,-3.32374 -3.4608,-8.87472 0,-6.47616 4.31743,-9.76563 4.3517,-3.28947 12.9523,-3.28947 l 8.84046,0 0,-0.61678 q 0,-4.3517 -2.87829,-6.71601 -2.84402,-2.39857 -8.01809,-2.39857 -3.28947,0 -6.40762,0.7881 -3.11815,0.7881 -5.99644,2.36431 l 0,-5.82511 q 3.46081,-1.33635 6.71601,-1.98739 3.25521,-0.68531 6.33909,-0.68531 8.32648,0 12.43833,4.31744 4.11184,4.31743 4.11184,13.08936 z"/>
		<path d="m 892.00933,474.85472 0,-23.23191 6.30483,0 0,22.99205 q 0,5.44819 2.12445,8.18942 2.12445,2.70696 6.37335,2.70696 5.10554,0 8.05236,-3.25521 2.98109,-3.25521 2.98109,-8.87473 l 0,-21.75849 6.30482,0 0,38.37719 -6.30482,0 0,-5.89364 q -2.29578,3.49507 -5.3454,5.20833 -3.01535,1.67901 -7.0244,1.67901 -6.61321,0 -10.03974,-4.11185 -3.42654,-4.11184 -3.42654,-12.02713 z m 15.86486,-24.15708 0,0 z"/>
		<path d="m 967.45886,470.36595 q 0,-6.85307 -2.84403,-10.62225 -2.80975,-3.76919 -7.91529,-3.76919 -5.07127,0 -7.9153,3.76919 -2.80976,3.76918 -2.80976,10.62225 0,6.81881 2.80976,10.588 2.84403,3.76919 7.9153,3.76919 5.10554,0 7.91529,-3.76919 2.84403,-3.76919 2.84403,-10.588 z m 6.30482,14.87117 q 0,9.79989 -4.3517,14.56277 -4.3517,4.79715 -13.32922,4.79715 -3.32374,0 -6.27056,-0.51398 -2.94682,-0.47972 -5.72231,-1.50768 l 0,-6.13349 q 2.77549,1.50767 5.48246,2.22724 2.70696,0.71958 5.51672,0.71958 6.20203,0 9.28591,-3.25521 3.08388,-3.22095 3.08388,-9.76563 l 0,-3.11814 q -1.95313,3.39227 -5.00274,5.07127 -3.04962,1.679 -7.29852,1.679 -7.05866,0 -11.3761,-5.37966 -4.31743,-5.37966 -4.31743,-14.25439 0,-8.90899 4.31743,-14.28865 4.31744,-5.37966 11.3761,-5.37966 4.2489,0 7.29852,1.67901 3.04961,1.679 5.00274,5.07127 l 0,-5.82511 6.30482,0 0,33.61431 z"/>
		<path d="m 1023.6513,466.83662 0,23.16338 -6.3048,0 0,-22.95778 q 0,-5.4482 -2.1245,-8.15516 -2.1244,-2.70696 -6.3733,-2.70696 -5.1055,0 -8.0524,3.25521 -2.94679,3.25521 -2.94679,8.87472 l 0,21.68997 -6.33909,0 0,-53.31689 6.33909,0 0,20.90187 q 2.26149,-3.4608 5.31109,-5.17407 3.0839,-1.71327 7.093,-1.71327 6.6132,0 10.0054,4.11184 3.3923,4.07758 3.3923,12.02714 z"/>
		<path d="m 1058.7363,470.70861 q -7.6412,0 -10.588,1.74753 -2.9469,1.74753 -2.9469,5.96217 0,3.35801 2.193,5.3454 2.2273,1.95312 6.0307,1.95312 5.2426,0 8.395,-3.70066 3.1867,-3.73492 3.1867,-9.90268 l 0,-1.40488 -6.2705,0 z m 12.5753,-2.60417 0,21.89556 -6.3048,0 0,-5.82511 q -2.1587,3.49507 -5.3796,5.17407 -3.221,1.64474 -7.8811,1.64474 -5.8936,0 -9.3887,-3.28948 -3.4608,-3.32374 -3.4608,-8.87472 0,-6.47616 4.3175,-9.76563 4.3517,-3.28947 12.9523,-3.28947 l 8.8404,0 0,-0.61678 q 0,-4.3517 -2.8783,-6.71601 -2.844,-2.39857 -8.0181,-2.39857 -3.2894,0 -6.4076,0.7881 -3.1181,0.7881 -5.9964,2.36431 l 0,-5.82511 q 3.4608,-1.33635 6.716,-1.98739 3.2552,-0.68531 6.3391,-0.68531 8.3265,0 12.4383,4.31744 4.1118,4.31743 4.1118,13.08936 z"/>
		<path d="m 1119.2119,458.98986 q 2.3643,-4.24891 5.6538,-6.27056 3.2894,-2.02166 7.7439,-2.02166 5.9965,0 9.2517,4.21464 3.2552,4.18037 3.2552,11.92434 l 0,23.16338 -6.3391,0 0,-22.95778 q 0,-5.51673 -1.9531,-8.18942 -1.9532,-2.6727 -5.9622,-2.6727 -4.8999,0 -7.744,3.25521 -2.844,3.25521 -2.844,8.87472 l 0,21.68997 -6.3391,0 0,-22.95778 q 0,-5.55099 -1.9531,-8.18942 -1.9531,-2.6727 -6.0307,-2.6727 -4.8314,0 -7.6755,3.28947 -2.844,3.25521 -2.844,8.84046 l 0,21.68997 -6.3391,0 0,-38.37719 6.3391,0 0,5.96217 q 2.1587,-3.52933 5.1741,-5.20833 3.0153,-1.67901 7.1615,-1.67901 4.1803,0 7.0929,2.12445 2.9468,2.12446 4.3517,6.16777 z"/>
	</g>
</svg>
